HIERARCHY
ROOT Hips
{
    OFFSET 0.000000 0.000000 0.000000
    CHANNELS 6 Xposition Yposition Zposition Zrotation Xrotation Yrotation
    JOINT Spine
    {
        OFFSET -0.000000 14.517291 0.000000
        CHANNELS 3 Zrotation Xrotation Yrotation
        JOINT Spine1
        {
            OFFSET -0.000000 37.558300 0.000000
            CHANNELS 3 Zrotation Xrotation Yrotation
            JOINT Neck
            {
                OFFSET -0.000000 37.404057 3.400369
                CHANNELS 3 Zrotation Xrotation Yrotation
                JOINT Head
                {
                    OFFSET -0.000000 24.785618 -3.540803
                    CHANNELS 3 Zrotation Xrotation Yrotation
                    End Site
                    {
                        OFFSET -0.000000 35.408028 0.000000
                    }
                }
            }
            JOINT LeftShoulder
            {
                OFFSET 6.992933 33.973492 -0.192664
                CHANNELS 3 Zrotation Xrotation Yrotation
                JOINT LeftArm
                {
                    OFFSET 21.527611 0.000000 0.000000
                    CHANNELS 3 Zrotation Xrotation Yrotation
                    JOINT LeftForeArm
                    {
                        OFFSET 56.353916 0.000000 0.000000
                        CHANNELS 3 Zrotation Xrotation Yrotation
                        JOINT LeftHand
                        {
                            OFFSET 47.774071 0.000000 0.000000
                            CHANNELS 3 Zrotation Xrotation Yrotation
                            End Site
                            {
                                OFFSET 26.556021 0.000000 0.000000
                            }
                        }
                    }
                }
            }
            JOINT RightShoulder
            {
                OFFSET -7.065357 33.973492 -0.192664
                CHANNELS 3 Zrotation Xrotation Yrotation
                JOINT RightArm
                {
                    OFFSET -21.527611 0.000000 0.000000
                    CHANNELS 3 Zrotation Xrotation Yrotation
                    JOINT RightForeArm
                    {
                        OFFSET -56.353916 0.000000 0.000000
                        CHANNELS 3 Zrotation Xrotation Yrotation
                        JOINT RightHand
                        {
                            OFFSET -47.774071 0.000000 0.000000
                            CHANNELS 3 Zrotation Xrotation Yrotation
                            End Site
                            {
                                OFFSET -26.556021 0.000000 0.000000
                            }
                        }
                    }
                }
            }
        }
    }
    JOINT LeftUpLeg
    {
        OFFSET 17.704014 0.000000 0.000000
        CHANNELS 3 Zrotation Xrotation Yrotation
        JOINT LeftLeg
        {
            OFFSET -0.000000 -81.181816 0.000000
            CHANNELS 3 Zrotation Xrotation Yrotation
            JOINT LeftFoot
            {
                OFFSET -0.000000 -62.821102 0.000000
                CHANNELS 3 Zrotation Xrotation Yrotation
                JOINT LeftToeBase
                {
                    OFFSET -0.000000 -11.507608 26.556021
                    CHANNELS 3 Zrotation Xrotation Yrotation
                    End Site
                    {
                        OFFSET -0.000000 0.000000 7.081605
                    }
                }
            }
        }
    }
    JOINT RightUpLeg
    {
        OFFSET -17.704014 0.000000 0.000000
        CHANNELS 3 Zrotation Xrotation Yrotation
        JOINT RightLeg
        {
            OFFSET -0.000000 -81.181816 0.000000
            CHANNELS 3 Zrotation Xrotation Yrotation
            JOINT RightFoot
            {
                OFFSET -0.000000 -62.821102 0.000000
                CHANNELS 3 Zrotation Xrotation Yrotation
                JOINT RightToeBase
                {
                    OFFSET -0.000000 -11.507608 26.556021
                    CHANNELS 3 Zrotation Xrotation Yrotation
                    End Site
                    {
                        OFFSET -0.000000 0.000000 7.081605
                    }
                }
            }
        }
    }
}
MOTION
Frames:    12
Frame Time:    0.008333
-11.646579    150.934204    -99.465576    1.613526    -4.872286    47.462605    -2.483218    0.529039    0.492741    -0.954306    1.910917    0.175694    -0.760821    5.364781    -20.815958    17.525881    0.104736    -19.234194    3.676345    8.074784    -13.656402    -34.923935    22.888990    -50.346329    -2.485995    -27.798401    -119.832153    -8.371755    -30.732258    -12.694670    -2.292131    7.048311    -5.216116    30.466675    17.341043    23.459759    -20.129395    -9.004468    5.440239    -17.770067    -10.423190    15.294792    16.836649    -5.477205    -7.422093    -20.003666    43.749985    -20.037212    9.498797    -32.557682    52.897457    0.000000    0.000000    0.000000    -25.844631    -16.616734    -26.419933    10.670185    31.162046    -17.773903    6.534326    6.124165    -8.444118    0.000000    0.000000    0.000000    
-11.696651    150.931137    -99.475792    1.621560    -4.886247    47.410526    -2.496368    0.536762    0.514941    -0.898187    1.913442    0.182384    -0.786256    5.367185    -20.804991    17.479477    0.121366    -19.228865    3.634811    8.079631    -13.681378    -34.930607    22.883907    -50.334908    -2.500933    -27.791763    -119.841278    -8.352145    -30.752081    -12.671981    -2.266587    7.137197    -5.175820    30.304558    17.178410    23.960466    -20.038807    -8.861876    5.795194    -17.947746    -10.288950    15.554943    16.864754    -5.459066    -7.370091    -20.015385    43.750824    -20.042282    9.490983    -32.553822    52.886887    0.000000    0.000000    0.000000    -25.824381    -16.643055    -26.402584    10.673364    31.162247    -17.762953    6.506892    6.136295    -8.419421    0.000000    0.000000    0.000000    
-11.735970    150.925797    -99.489067    1.638768    -4.904890    47.358208    -2.490735    0.549911    0.530255    -0.872531    1.922050    0.187010    -0.815520    5.343370    -20.790260    17.437731    0.178974    -19.224550    3.604304    8.076960    -13.676955    -34.913628    22.912411    -50.347816    -2.499456    -27.813322    -119.843430    -8.377314    -30.769291    -12.660625    -2.235005    7.215449    -5.119935    30.172743    16.746822    24.466736    -19.719616    -8.504969    6.185151    -18.179335    -9.946123    15.749153    16.886353    -5.426934    -7.329847    -20.044012    43.742432    -20.020872    9.496376    -32.541870    52.880646    0.000000    0.000000    0.000000    -25.813416    -16.657764    -26.394831    10.682014    31.169670    -17.756647    6.481721    6.145619    -8.393075    0.000000    0.000000    0.000000    
-11.772556    150.919495    -99.493820    1.661188    -4.927581    47.314453    -2.506610    0.562018    0.544637    -0.812843    1.931197    0.190547    -0.864802    5.350570    -20.772026    17.427242    0.200962    -19.205084    3.580430    8.089706    -13.681490    -34.900120    22.928852    -50.377964    -2.490595    -27.843103    -119.841225    -8.438837    -30.778635    -12.665355    -2.236209    7.309807    -5.080482    30.019264    16.693048    24.984331    -19.701063    -8.442032    6.531022    -18.220764    -9.840441    15.808478    16.900806    -5.389055    -7.299608    -20.048502    43.744244    -20.032661    9.501458    -32.548382    52.899647    0.000000    0.000000    0.000000    -25.799036    -16.656647    -26.417044    10.670703    31.174089    -17.715347    6.436016    6.147724    -8.358173    0.000000    0.000000    0.000000    
-11.809375    150.913849    -99.505486    1.679315    -4.941038    47.263950    -2.512096    0.566666    0.561512    -0.784400    1.944516    0.195989    -0.884637    5.332298    -20.753428    17.388605    0.242916    -19.194847    3.569311    8.092319    -13.682392    -34.886936    22.948566    -50.403252    -2.506075    -27.848682    -119.859352    -8.492393    -30.802706    -12.672667    -2.206390    7.375598    -5.044549    29.868233    16.401636    25.496202    -19.447226    -8.196136    6.896173    -18.429464    -9.626356    16.107145    16.913866    -5.358819    -7.262128    -20.069117    43.736885    -20.014978    9.510516    -32.535194    52.897854    0.000000    0.000000    0.000000    -25.791073    -16.669672    -26.442648    10.652408    31.183273    -17.667526    6.407077    6.160006    -8.320121    0.000000    0.000000    0.000000    
-11.845816    150.904037    -99.516090    1.701870    -4.955411    47.205730    -2.514593    0.580980    0.587256    -0.768203    1.946640    0.204011    -0.902780    5.307937    -20.739655    17.363144    0.306045    -19.191212    3.565389    8.085006    -13.687613    -34.869598    22.989407    -50.425701    -2.522768    -27.866444    -119.884262    -8.492395    -30.848328    -12.646803    -2.161069    7.455775    -5.020700    29.625202    16.214699    25.936186    -19.109894    -7.999991    7.498762    -18.601954    -9.374666    16.099892    16.923244    -5.316276    -7.221180    -20.082214    43.721821    -19.983130    9.500941    -32.547981    52.873035    0.000000    0.000000    0.000000    -25.786200    -16.685831    -26.451784    10.653584    31.194786    -17.657391    6.378243    6.161463    -8.287169    0.000000    0.000000    0.000000    
-11.879409    150.892227    -99.524979    1.730953    -4.968005    47.146614    -2.546005    0.583584    0.605176    -0.699504    1.816600    0.207883    -0.950095    5.635382    -20.702341    17.400084    0.179551    -19.125795    3.482704    8.245754    -13.850119    -34.842331    22.916376    -50.294720    -2.547078    -27.892973    -119.861687    -8.544520    -30.898273    -12.726571    -2.128464    7.661745    -4.783940    29.525570    16.036924    26.382540    -19.111729    -7.792807    7.592269    -18.744247    -9.234890    16.472429    16.927156    -5.266465    -7.197114    -20.103067    43.702538    -19.976389    9.527578    -32.541065    52.892937    0.000000    0.000000    0.000000    -25.787750    -16.694349    -26.471321    10.648500    31.205990    -17.620491    6.333458    6.153609    -8.231304    0.000000    0.000000    0.000000    
-11.913834    150.883957    -99.535713    1.758111    -4.975734    47.080395    -2.545962    0.592562    0.646654    -0.702269    1.942865    0.222561    -0.955888    5.316446    -20.697294    17.311817    0.390107    -19.160700    3.519334    8.090714    -13.733937    -34.856075    23.005957    -50.372238    -2.135321    -27.824875    -119.695946    -8.389754    -30.214867    -12.854568    -2.089982    7.609273    -4.900140    29.377186    15.901722    27.021870    -19.002190    -7.561927    7.875204    -18.789633    -9.007615    16.686071    16.923370    -5.218585    -7.142242    -20.099010    43.684959    -19.955387    9.513328    -32.557121    52.876724    0.000000    0.000000    0.000000    -25.789961    -16.712225    -26.461857    10.668430    31.231087    -17.675360    6.277523    6.121012    -8.139729    0.000000    0.000000    0.000000    
-11.951400    150.875015    -99.548729    1.784459    -4.982035    47.008556    -2.534881    0.624436    0.666708    -0.727676    1.951940    0.229733    -0.944306    5.181272    -20.670940    17.237560    0.520214    -19.162321    3.551775    8.049255    -13.639476    -34.832623    23.057669    -50.457012    -2.131173    -27.800098    -119.714798    -8.422266    -30.181759    -12.864864    -2.065135    7.647314    -4.876958    29.262838    15.740730    27.531746    -18.873510    -7.396957    8.305884    -18.873642    -8.799888    16.723137    16.917818    -5.175593    -7.080104    -20.086309    43.681190    -19.943237    9.500133    -32.561306    52.854950    0.000000    0.000000    0.000000    -25.787355    -16.735470    -26.471193    10.653004    31.235987    -17.661251    6.237907    6.124684    -8.065188    0.000000    0.000000    0.000000    
-11.981648    150.865631    -99.556839    1.816230    -4.987773    46.943565    -2.567580    0.617046    0.699109    -0.648395    1.937371    0.239137    -1.058768    5.253003    -20.655226    17.297825    0.549462    -19.131044    3.452533    8.063028    -13.693607    -34.783943    23.061031    -50.390316    -2.145151    -27.781530    -119.738380    -8.393572    -30.188694    -12.868347    -2.090805    7.761290    -4.768630    29.107273    15.897333    27.983135    -19.023851    -7.353815    8.549274    -18.998219    -8.761386    16.944956    16.912333    -5.126631    -7.052714    -20.116352    43.659771    -19.909258    9.512104    -32.566116    52.871624    0.000000    0.000000    0.000000    -25.790854    -16.742744    -26.457890    10.644398    31.211136    -17.643147    6.225200    6.157187    -8.018527    0.000000    0.000000    0.000000    
-12.018271    150.857697    -99.563042    1.840604    -4.994223    46.881268    -2.568809    0.619759    0.732097    -0.639005    1.967192    0.249959    -1.081230    5.150692    -20.635393    17.257343    0.662156    -19.129061    3.450673    8.006910    -13.652872    -34.755074    23.112139    -50.423748    -2.133170    -27.765001    -119.754166    -8.432980    -30.150564    -12.889376    -2.097870    7.808786    -4.743386    29.038389    15.661690    28.476404    -18.841871    -7.053678    8.910867    -19.068098    -8.464288    17.164404    16.908716    -5.086524    -7.020212    -20.119699    43.645885    -19.889841    9.510194    -32.561203    52.862648    0.000000    0.000000    0.000000    -25.789175    -16.752211    -26.446226    10.653731    31.203093    -17.646875    6.200972    6.146753    -7.952115    0.000000    0.000000    0.000000    
-12.051435    150.850479    -99.569656    1.858293    -4.998985    46.824455    -2.567482    0.614698    0.766733    -0.626589    1.972261    0.261412    -1.111387    5.104222    -20.624012    17.236652    0.751583    -19.129576    3.427525    7.984901    -13.655805    -34.710793    23.137579    -50.427422    -2.150249    -27.738905    -119.779503    -8.384893    -30.156687    -12.894084    -2.091908    7.859408    -4.697917    28.922415    15.650202    28.922256    -18.823494    -6.997761    9.291713    -19.183907    -8.385375    17.283846    16.908503    -5.056668    -6.997901    -20.137577    43.633282    -19.855141    9.509624    -32.556133    52.861576    0.000000    0.000000    0.000000    -25.787849    -16.764320    -26.420330    10.677761    31.190983    -17.654552    6.158145    6.141052    -7.914727    0.000000    0.000000    0.000000    
